<?xml version="1.0" standalone="no"?>
<!DOCTYPE svg PUBLIC "-//W3C//DTD SVG 20010904//EN"
 "http://www.w3.org/TR/2001/REC-SVG-20010904/DTD/svg10.dtd">
<svg version="1.0" xmlns="http://www.w3.org/2000/svg"
 width="349.000000pt" height="349.000000pt" viewBox="0 0 349.000000 349.000000"
 preserveAspectRatio="xMidYMid meet">
<metadata>
Created by potrace 1.11, written by Peter Selinger 2001-2013
</metadata>
<g transform="translate(0.000000,349.000000) scale(0.100000,-0.100000)"
fill="#000000" stroke="none">
<path d="M2394 2741 c-2 -3 -30 -6 -61 -7 -67 -3 -138 -21 -154 -40 -6 -8 -19
-14 -29 -14 -9 0 -23 -11 -30 -25 -12 -23 -12 -27 9 -42 23 -16 23 -17 16
-157 -3 -77 -10 -143 -15 -146 -5 -3 -9 -59 -9 -125 0 -66 -2 -147 -5 -180 -2
-33 -7 -116 -10 -185 -13 -270 -25 -420 -37 -441 -18 -34 -10 -39 56 -39 46 0
80 7 117 23 30 14 85 27 128 31 41 4 93 9 115 12 22 3 76 6 120 7 63 2 84 6
98 20 11 11 27 17 37 14 30 -8 46 12 90 110 40 90 46 116 55 218 2 28 9 74 14
103 6 31 7 61 2 70 -6 13 -7 348 0 447 0 8 -8 92 -15 145 -1 8 -15 38 -30 65
-15 28 -34 61 -41 75 -18 34 -73 52 -102 33 -19 -12 -22 -12 -31 2 -5 10 -26
19 -48 21 -54 7 -235 10 -240 5z m94 -167 c17 -7 32 -11 32 -9 0 14 144 -72
187 -112 77 -71 85 -98 79 -262 -4 -75 -8 -152 -11 -171 -2 -19 -7 -75 -11
-125 -10 -137 -11 -146 -20 -200 -4 -27 -7 -55 -6 -62 2 -6 -3 -15 -9 -19 -8
-5 -10 -2 -5 7 4 8 1 5 -8 -6 -27 -36 -35 -43 -47 -47 -9 -3 -10 -12 -1 -36
l11 -32 -40 -1 c-65 -2 -93 -5 -121 -13 -20 -6 -28 -4 -28 4 0 12 -91 10 -150
-4 -14 -3 -31 -2 -38 3 -13 8 -12 19 13 141 2 14 0 10 -7 -7 -23 -67 -30 -25
-13 77 2 8 7 14 11 13 5 -1 9 49 9 110 1 194 14 436 25 457 7 13 7 21 0 25 -8
5 -8 11 0 20 6 8 10 22 9 32 -1 10 1 25 4 33 9 24 46 153 51 180 2 14 5 26 5
28 1 4 37 -7 79 -24z"/>
<path d="M837 2613 c-4 -3 -46 -6 -93 -5 -61 1 -90 -2 -98 -11 -6 -7 -37 -21
-68 -31 -32 -9 -60 -20 -62 -25 -16 -25 -40 -287 -37 -397 1 -28 -4 -33 -62
-60 -53 -24 -100 -53 -210 -127 -93 -62 -157 -164 -184 -292 -31 -141 -8 -209
90 -265 46 -27 58 -30 112 -25 33 3 97 8 143 11 l82 5 0 -50 0 -50 100 0 100
-1 0 500 0 500 53 1 c28 1 63 2 77 4 14 2 47 6 73 9 26 3 52 8 57 11 5 3 10
29 10 58 1 29 2 77 4 107 4 78 -1 92 -38 118 -35 24 -39 25 -49 15z m-372
-855 c-4 -91 -9 -136 -18 -146 -20 -19 -120 -21 -142 -2 -21 17 -54 86 -55
112 0 35 159 167 202 168 16 0 17 -12 13 -132z"/>
<path d="M1045 2592 c-3 -3 -5 -21 -5 -41 0 -19 -9 -60 -19 -90 -10 -31 -22
-69 -27 -86 -4 -16 -8 -32 -9 -35 -1 -3 -5 -27 -10 -55 -5 -27 -10 -52 -10
-55 -3 -11 -15 -77 -20 -104 -2 -16 -9 -54 -16 -84 -6 -29 -8 -65 -5 -78 4
-14 3 -30 -1 -37 -4 -7 -9 -21 -10 -31 -2 -11 -8 -25 -14 -33 -6 -7 -8 -13 -4
-13 4 0 3 -6 -3 -13 -6 -7 -13 -30 -16 -52 -2 -22 -15 -80 -27 -130 -12 -49
-23 -103 -24 -120 -2 -28 -52 -232 -60 -246 -2 -3 -16 -62 -29 -130 -14 -68
-37 -168 -51 -223 -40 -159 -35 -175 60 -170 28 1 76 3 108 4 45 2 63 8 78 24
22 23 34 60 25 74 -7 11 20 82 32 83 4 0 16 2 26 4 11 2 39 0 63 -4 24 -5 40
-5 37 0 -5 9 2 11 42 13 12 1 33 7 47 15 21 11 32 12 52 3 14 -6 25 -8 25 -3
0 23 -14 41 -31 41 -23 0 -23 6 0 45 18 30 18 30 -8 42 -25 11 -25 11 -3 12
12 1 22 6 22 11 0 9 -15 14 -33 11 -5 -1 -11 8 -14 19 -3 11 -11 20 -18 20 -8
0 -17 9 -20 20 -4 12 -24 28 -46 38 -21 9 -39 20 -39 24 0 5 -7 8 -15 8 -18 0
-19 28 -4 67 7 15 13 39 14 53 4 39 25 143 32 160 4 8 7 22 8 30 1 8 9 36 18
61 8 25 18 65 22 90 4 24 11 67 16 94 5 28 12 66 15 85 3 19 10 43 16 54 5 10
11 32 13 50 4 43 14 100 30 171 7 33 19 87 26 120 15 71 16 74 19 78 2 3 6 20
15 72 3 22 9 51 11 65 3 19 -3 33 -22 50 -24 23 -33 25 -140 26 -62 1 -116 -1
-119 -4z"/>
<path d="M1403 2198 c-4 -7 -18 -51 -31 -98 -23 -87 -25 -96 -36 -165 -9 -59
-26 -135 -41 -180 -7 -22 -18 -76 -25 -120 -7 -44 -14 -93 -17 -108 -2 -15 5
-58 16 -95 11 -37 20 -78 19 -92 0 -25 9 -78 35 -196 9 -39 11 -68 5 -78 -5
-10 -5 -16 1 -16 10 0 27 -66 36 -140 10 -85 17 -108 38 -128 26 -24 43 -28
77 -18 14 3 67 8 117 9 51 2 94 5 97 8 9 9 -23 190 -53 299 -29 102 -49 195
-55 255 -6 51 -10 77 -27 175 -18 105 -20 115 -24 130 -2 8 -7 29 -9 45 -3 17
-15 73 -26 125 -12 52 -25 120 -30 150 -5 30 -14 82 -20 115 -6 33 -14 75 -17
93 -6 37 -18 48 -30 30z"/>
<path d="M3019 2131 c-1 -9 -2 -38 -3 -64 l-1 -48 75 3 75 3 3 48 c4 61 -8 72
-85 73 -51 1 -63 -2 -64 -15z"/>
<path d="M3210 2101 c-5 -20 -16 -72 -25 -116 -23 -117 -53 -260 -74 -345 -15
-60 -37 -162 -45 -206 -1 -9 91 -12 102 -5 4 3 12 19 17 35 10 30 12 31 113
39 24 2 30 13 10 19 -8 3 -6 6 4 10 13 5 19 -5 30 -50 l13 -57 55 0 c50 1 55
3 56 24 1 13 -7 58 -17 100 -16 67 -59 290 -64 331 -6 52 -18 100 -25 100 -5
0 -12 -15 -15 -34 -5 -22 -14 -36 -27 -39 -22 -6 -31 10 -24 44 3 13 8 38 11
54 3 17 10 47 16 68 14 51 0 66 -57 65 -42 0 -44 -2 -54 -37z"/>
<path d="M1105 1300 c-3 -5 1 -10 9 -10 9 0 16 5 16 10 0 6 -4 10 -9 10 -6 0
-13 -4 -16 -10z"/>
<path d="M1280 1060 c0 -5 5 -10 11 -10 5 0 7 5 4 10 -3 6 -8 10 -11 10 -2 0
-4 -4 -4 -10z"/>
</g>
</svg>
